<mxfile host="app.diagrams.net" modified="2022-06-25T13:48:20.675Z" agent="5.0 (Macintosh; Intel Mac OS X 10_15_7) AppleWebKit/605.1.15 (KHTML, like Gecko) Version/15.5 Safari/605.1.15" etag="Lxuf7391wsZKQXGkp2sf" version="20.0.3" type="github">
  <diagram id="Bv1JCfjLEpzCvMA5lc87" name="Page-1">
    <mxGraphModel dx="2767" dy="-2748" grid="1" gridSize="10" guides="1" tooltips="1" connect="1" arrows="1" fold="1" page="1" pageScale="1" pageWidth="827" pageHeight="1169" math="0" shadow="0">
      <root>
        <mxCell id="0" />
        <mxCell id="1" parent="0" />
        <mxCell id="rpI_Agg71esc5i5cM7wn-1" value="" style="rounded=1;whiteSpace=wrap;html=1;glass=0;fontFamily=Times New Roman;fontSize=13;strokeWidth=1;fillColor=#fff2cc;gradientDirection=east;strokeColor=#d6b656;" vertex="1" parent="1">
          <mxGeometry x="-1610" y="3770" width="460" height="90" as="geometry" />
        </mxCell>
        <mxCell id="rpI_Agg71esc5i5cM7wn-2" value="&lt;font style=&quot;font-size: 15px&quot;&gt;Query Interface Layer&lt;/font&gt;" style="text;html=1;strokeColor=none;fillColor=none;align=center;verticalAlign=middle;whiteSpace=wrap;rounded=0;glass=0;fontFamily=Times New Roman;fontSize=13;fontColor=#000000;" vertex="1" parent="1">
          <mxGeometry x="-1600" y="3800" width="120" height="30" as="geometry" />
        </mxCell>
        <mxCell id="rpI_Agg71esc5i5cM7wn-3" value="Unified&lt;br&gt;Access&lt;br&gt;Interface" style="rounded=0;whiteSpace=wrap;html=1;glass=0;fontFamily=Times New Roman;fontSize=15;strokeWidth=1;gradientDirection=east;" vertex="1" parent="1">
          <mxGeometry x="-1470" y="3785" width="120" height="60" as="geometry" />
        </mxCell>
        <mxCell id="rpI_Agg71esc5i5cM7wn-4" value="Single Model&amp;nbsp;&lt;br&gt;Interface" style="rounded=0;whiteSpace=wrap;html=1;glass=0;fontFamily=Times New Roman;fontSize=15;strokeWidth=1;gradientDirection=east;" vertex="1" parent="1">
          <mxGeometry x="-1310" y="3785" width="120" height="60" as="geometry" />
        </mxCell>
        <mxCell id="rpI_Agg71esc5i5cM7wn-5" value="" style="rounded=1;whiteSpace=wrap;html=1;glass=0;fontFamily=Times New Roman;fontSize=13;strokeWidth=1;fillColor=#d5e8d4;gradientDirection=east;strokeColor=#82b366;" vertex="1" parent="1">
          <mxGeometry x="-1610" y="3890" width="460" height="90" as="geometry" />
        </mxCell>
        <mxCell id="rpI_Agg71esc5i5cM7wn-6" value="&lt;font style=&quot;font-size: 15px&quot;&gt;Computation&lt;br&gt;Execution Layer&lt;/font&gt;" style="text;html=1;strokeColor=none;fillColor=none;align=center;verticalAlign=middle;whiteSpace=wrap;rounded=0;glass=0;fontFamily=Times New Roman;fontSize=13;fontColor=#000000;" vertex="1" parent="1">
          <mxGeometry x="-1600" y="3920" width="120" height="30" as="geometry" />
        </mxCell>
        <mxCell id="rpI_Agg71esc5i5cM7wn-7" value="Multi-model&lt;br&gt;Execution&lt;br&gt;Engines" style="rounded=0;whiteSpace=wrap;html=1;glass=0;fontFamily=Times New Roman;fontSize=15;strokeWidth=1;gradientDirection=east;" vertex="1" parent="1">
          <mxGeometry x="-1470" y="3905" width="120" height="60" as="geometry" />
        </mxCell>
        <mxCell id="rpI_Agg71esc5i5cM7wn-8" value="Adaptive&lt;br&gt;Optimization" style="rounded=0;whiteSpace=wrap;html=1;glass=0;fontFamily=Times New Roman;fontSize=15;strokeWidth=1;gradientDirection=east;" vertex="1" parent="1">
          <mxGeometry x="-1310" y="3905" width="120" height="60" as="geometry" />
        </mxCell>
        <mxCell id="rpI_Agg71esc5i5cM7wn-9" value="" style="rounded=1;whiteSpace=wrap;html=1;glass=0;fontFamily=Times New Roman;fontSize=13;strokeWidth=1;fillColor=#dae8fc;gradientDirection=east;strokeColor=#6c8ebf;" vertex="1" parent="1">
          <mxGeometry x="-1610" y="4000" width="460" height="90" as="geometry" />
        </mxCell>
        <mxCell id="rpI_Agg71esc5i5cM7wn-10" value="&lt;span style=&quot;font-size: 15px&quot;&gt;Data Storage&lt;br&gt;Layer&lt;br&gt;&lt;/span&gt;" style="text;html=1;strokeColor=none;fillColor=none;align=center;verticalAlign=middle;whiteSpace=wrap;rounded=0;glass=0;fontFamily=Times New Roman;fontSize=13;fontColor=#000000;" vertex="1" parent="1">
          <mxGeometry x="-1600" y="4030" width="120" height="30" as="geometry" />
        </mxCell>
        <mxCell id="rpI_Agg71esc5i5cM7wn-11" value="Graph&amp;nbsp;&lt;br&gt;Storage&lt;br&gt;Subsystem" style="shape=cylinder3;whiteSpace=wrap;html=1;boundedLbl=1;backgroundOutline=1;size=15;glass=0;fontFamily=Times New Roman;fontSize=15;fontColor=#000000;strokeWidth=1;fillColor=none;gradientColor=none;gradientDirection=east;" vertex="1" parent="1">
          <mxGeometry x="-1480" y="4005" width="90" height="80" as="geometry" />
        </mxCell>
        <mxCell id="rpI_Agg71esc5i5cM7wn-12" value="Relational&amp;nbsp;&lt;br&gt;Storage&lt;br&gt;Subsystem" style="shape=cylinder3;whiteSpace=wrap;html=1;boundedLbl=1;backgroundOutline=1;size=15;glass=0;fontFamily=Times New Roman;fontSize=15;fontColor=#000000;strokeWidth=1;fillColor=none;gradientColor=none;gradientDirection=east;" vertex="1" parent="1">
          <mxGeometry x="-1370" y="4005" width="90" height="80" as="geometry" />
        </mxCell>
        <mxCell id="rpI_Agg71esc5i5cM7wn-13" value="Document&lt;br&gt;Storage&lt;br&gt;Subsystem" style="shape=cylinder3;whiteSpace=wrap;html=1;boundedLbl=1;backgroundOutline=1;size=15;glass=0;fontFamily=Times New Roman;fontSize=15;fontColor=#000000;strokeWidth=1;fillColor=none;gradientColor=none;gradientDirection=east;" vertex="1" parent="1">
          <mxGeometry x="-1260" y="4005" width="90" height="80" as="geometry" />
        </mxCell>
        <mxCell id="rpI_Agg71esc5i5cM7wn-14" value="" style="endArrow=classic;html=1;rounded=0;fontFamily=Times New Roman;fontSize=15;fontColor=#000000;startSize=4;strokeWidth=1;exitX=0;exitY=0.5;exitDx=0;exitDy=0;entryX=1;entryY=0.5;entryDx=0;entryDy=0;" edge="1" parent="1" source="rpI_Agg71esc5i5cM7wn-8" target="rpI_Agg71esc5i5cM7wn-7">
          <mxGeometry width="50" height="50" relative="1" as="geometry">
            <mxPoint x="-1170" y="3800" as="sourcePoint" />
            <mxPoint x="-1120" y="3750" as="targetPoint" />
          </mxGeometry>
        </mxCell>
        <mxCell id="rpI_Agg71esc5i5cM7wn-15" value="" style="rounded=1;whiteSpace=wrap;html=1;glass=0;fontFamily=Times New Roman;fontSize=13;strokeWidth=1;fillColor=#f5f5f5;gradientDirection=east;strokeColor=#666666;fontColor=#333333;" vertex="1" parent="1">
          <mxGeometry x="-1610" y="4120" width="580" height="50" as="geometry" />
        </mxCell>
        <mxCell id="rpI_Agg71esc5i5cM7wn-16" value="Resource&amp;nbsp; Management Layer" style="text;html=1;strokeColor=none;fillColor=none;align=center;verticalAlign=middle;whiteSpace=wrap;rounded=0;glass=0;fontFamily=Times New Roman;fontSize=15;fontColor=#000000;" vertex="1" parent="1">
          <mxGeometry x="-1610" y="4129" width="210" height="32" as="geometry" />
        </mxCell>
        <mxCell id="rpI_Agg71esc5i5cM7wn-17" value="Docker, Kubernetes, and Server" style="text;html=1;strokeColor=none;fillColor=none;align=center;verticalAlign=middle;whiteSpace=wrap;rounded=0;glass=0;fontFamily=Times New Roman;fontSize=15;fontColor=#000000;" vertex="1" parent="1">
          <mxGeometry x="-1280" y="4129" width="210" height="32" as="geometry" />
        </mxCell>
        <mxCell id="rpI_Agg71esc5i5cM7wn-18" value="" style="rounded=1;whiteSpace=wrap;html=1;glass=0;fontFamily=Times New Roman;fontSize=15;strokeWidth=1;fillColor=#f8cecc;gradientDirection=east;strokeColor=#b85450;" vertex="1" parent="1">
          <mxGeometry x="-1110" y="3770" width="110" height="320" as="geometry" />
        </mxCell>
        <mxCell id="rpI_Agg71esc5i5cM7wn-19" value="Adaptive Scaling System" style="text;html=1;strokeColor=none;fillColor=none;align=center;verticalAlign=middle;whiteSpace=wrap;rounded=0;glass=0;fontFamily=Times New Roman;fontSize=15;fontColor=#000000;" vertex="1" parent="1">
          <mxGeometry x="-1110" y="3800" width="110" height="30" as="geometry" />
        </mxCell>
        <mxCell id="rpI_Agg71esc5i5cM7wn-20" value="Load Sence" style="rounded=0;whiteSpace=wrap;html=1;glass=0;fontFamily=Times New Roman;fontSize=15;strokeWidth=1;gradientDirection=east;" vertex="1" parent="1">
          <mxGeometry x="-1100" y="3850" width="90" height="55" as="geometry" />
        </mxCell>
        <mxCell id="rpI_Agg71esc5i5cM7wn-21" value="Scaling&amp;nbsp;&lt;br&gt;Strategy" style="rounded=0;whiteSpace=wrap;html=1;glass=0;fontFamily=Times New Roman;fontSize=15;strokeWidth=1;gradientDirection=east;" vertex="1" parent="1">
          <mxGeometry x="-1100" y="3925" width="90" height="55" as="geometry" />
        </mxCell>
        <mxCell id="rpI_Agg71esc5i5cM7wn-22" value="Execution&lt;br&gt;Framework" style="rounded=0;whiteSpace=wrap;html=1;glass=0;fontFamily=Times New Roman;fontSize=15;strokeWidth=1;gradientDirection=east;" vertex="1" parent="1">
          <mxGeometry x="-1100" y="4000" width="90" height="55" as="geometry" />
        </mxCell>
        <mxCell id="rpI_Agg71esc5i5cM7wn-23" value="" style="endArrow=blockThin;html=1;rounded=0;fontFamily=Times New Roman;fontSize=15;fontColor=#000000;startSize=4;strokeWidth=1;exitX=0.5;exitY=1;exitDx=0;exitDy=0;startArrow=blockThin;startFill=1;endFill=1;endSize=4;" edge="1" parent="1" source="rpI_Agg71esc5i5cM7wn-20" target="rpI_Agg71esc5i5cM7wn-21">
          <mxGeometry width="50" height="50" relative="1" as="geometry">
            <mxPoint x="-1180" y="3820" as="sourcePoint" />
            <mxPoint x="-1130" y="3770" as="targetPoint" />
          </mxGeometry>
        </mxCell>
        <mxCell id="rpI_Agg71esc5i5cM7wn-24" value="" style="endArrow=blockThin;html=1;rounded=0;fontFamily=Times New Roman;fontSize=15;fontColor=#000000;startSize=4;strokeWidth=1;exitX=0.5;exitY=1;exitDx=0;exitDy=0;startArrow=blockThin;startFill=1;endFill=1;endSize=4;entryX=0.5;entryY=0;entryDx=0;entryDy=0;" edge="1" parent="1" source="rpI_Agg71esc5i5cM7wn-21" target="rpI_Agg71esc5i5cM7wn-22">
          <mxGeometry width="50" height="50" relative="1" as="geometry">
            <mxPoint x="-1045" y="3915" as="sourcePoint" />
            <mxPoint x="-1045" y="3935" as="targetPoint" />
          </mxGeometry>
        </mxCell>
        <mxCell id="rpI_Agg71esc5i5cM7wn-25" value="" style="strokeWidth=2;html=1;shape=mxgraph.flowchart.annotation_2;align=left;labelPosition=right;pointerEvents=1;glass=0;fontFamily=Times New Roman;fontSize=15;fontColor=#000000;fillColor=none;gradientColor=none;gradientDirection=east;rotation=-180;" vertex="1" parent="1">
          <mxGeometry x="-1150" y="3820" width="50" height="120" as="geometry" />
        </mxCell>
        <mxCell id="rpI_Agg71esc5i5cM7wn-26" value="" style="strokeWidth=2;html=1;shape=mxgraph.flowchart.annotation_1;align=left;pointerEvents=1;glass=0;fontFamily=Times New Roman;fontSize=15;fontColor=#000000;fillColor=none;gradientColor=none;gradientDirection=east;rotation=-180;" vertex="1" parent="1">
          <mxGeometry x="-1150" y="3940" width="25" height="120" as="geometry" />
        </mxCell>
        <mxCell id="rpI_Agg71esc5i5cM7wn-27" value="" style="edgeStyle=segmentEdgeStyle;endArrow=classic;html=1;rounded=0;fontFamily=Times New Roman;fontSize=15;fontColor=#000000;startSize=4;endSize=4;strokeWidth=1;exitX=1;exitY=0.5;exitDx=0;exitDy=0;entryX=1;entryY=0.5;entryDx=0;entryDy=0;" edge="1" parent="1" source="rpI_Agg71esc5i5cM7wn-22" target="rpI_Agg71esc5i5cM7wn-15">
          <mxGeometry width="50" height="50" relative="1" as="geometry">
            <mxPoint x="-917" y="3977.4700000000003" as="sourcePoint" />
            <mxPoint x="-867" y="3927.4700000000003" as="targetPoint" />
            <Array as="points">
              <mxPoint x="-980" y="4027" />
              <mxPoint x="-980" y="4145" />
            </Array>
          </mxGeometry>
        </mxCell>
      </root>
    </mxGraphModel>
  </diagram>
</mxfile>
